<svg xmlns="http://www.w3.org/2000/svg" xmlns:xlink="http://www.w3.org/1999/xlink" viewBox="0 0 450 250"><defs><style>.cls-1{fill:none;}.cls-2{fill:transparent;}.cls-3{clip-path:url(#clip-path);}.cls-4{fill:#28aee2;}</style><clipPath id="clip-path"><rect id="SVGID" class="cls-1" x="139" y="39" width="172" height="172"/></clipPath></defs><title>Recurso 1</title><g id="Capa_2" data-name="Capa 2"><g id="Capa_1-2" data-name="Capa 1"><rect class="cls-2" width="450" height="250"/><g class="cls-3"><path class="cls-4" d="M229,73.19a96.73,96.73,0,0,1,41.5,27,9.5,9.5,0,0,1,6.36-2.61,8.39,8.39,0,0,1,2,.26,74.94,74.94,0,0,0,3.71-36.53c0-.08,0-.15,0-.23a85.92,85.92,0,0,0-25.85-16.06A130.71,130.71,0,0,0,229,73.19Z"/><path class="cls-4" d="M190,68.85c2.95-.28,5.92-.47,8.95-.47A96.42,96.42,0,0,1,221.22,71a130.55,130.55,0,0,1,28.37-28.39,86,86,0,0,0-53,1.24A96.21,96.21,0,0,0,184.8,65,10,10,0,0,1,190,68.85Z"/><path class="cls-4" d="M180.47,83.87q-.6.15-1.2.24a96.75,96.75,0,0,0-1.48,16.7,95.42,95.42,0,0,0,11.44,45.36,19.58,19.58,0,0,1,4.84,0,138,138,0,0,1,13.09-51.51,141.93,141.93,0,0,1,8.53-15.52,96.39,96.39,0,0,0-21.5-2.41c-1.32,0-2.63.08-3.94.13C188.61,80.06,185,82.79,180.47,83.87Z"/><path class="cls-4" d="M223.56,81.3a143.22,143.22,0,0,0-8.21,15,137.42,137.42,0,0,0-13.11,52.4,20.74,20.74,0,0,1,7.47,6.79c23.49-5,43.26-17.69,56.41-34.53a21.89,21.89,0,0,1-1.06-6.81,22.54,22.54,0,0,1,.71-5.6A96.82,96.82,0,0,0,223.56,81.3Z"/><path class="cls-4" d="M176.23,155.39a14.44,14.44,0,0,1,4.68-5.92,95,95,0,0,1-9.06-65.82,10.7,10.7,0,0,1-4.74-3,96.31,96.31,0,0,0-20.31,8.53,86.2,86.2,0,0,0-5.15,57,96.13,96.13,0,0,0,34,10.78A15.45,15.45,0,0,1,176.23,155.39Z"/><path class="cls-4" d="M276.89,130.72a9,9,0,0,1-4.78-1.41C258.5,147.1,237.53,160.37,212.59,165a14.34,14.34,0,0,1-1.1,5.28,15,15,0,0,1-1.3,2.36,95.62,95.62,0,0,0,62.14,24.14,86.51,86.51,0,0,0,18.18-16.12c.19-2.42.32-4.86.32-7.33A96,96,0,0,0,280.46,130,8.94,8.94,0,0,1,276.89,130.72Z"/><path class="cls-4" d="M204.4,178.16a102.48,102.48,0,0,0,12.4,32.44c2.7.25,5.43.4,8.2.4a85.52,85.52,0,0,0,41.73-10.81c-.39,0-.77,0-1.16,0A95.5,95.5,0,0,1,204.4,178.16Z"/><path class="cls-4" d="M187.48,178a20.15,20.15,0,0,1-11.79-12.79,95.22,95.22,0,0,1-31.91-11.87A86.12,86.12,0,0,0,209,209.49a100.75,100.75,0,0,1-12-29.83A21.69,21.69,0,0,1,187.48,178Z"/><path class="cls-4" d="M175.9,64.65a18.49,18.49,0,0,1,2.4-.4,95.88,95.88,0,0,1,10.07-17.06,86.25,86.25,0,0,0-37.35,34,96.93,96.93,0,0,1,14.18-6.63C165.8,70.14,170,66,175.9,64.65Z"/><path class="cls-4" d="M311,125a85.67,85.67,0,0,0-23.72-59.27q.48,2.26.84,4.59a74.66,74.66,0,0,1-2.47,32.76,20.53,20.53,0,0,1,3.07,11.09,21.1,21.1,0,0,1-2.3,9.78A96.17,96.17,0,0,1,295.61,165c0,3.3-.18,6.55-.5,9.76A85.61,85.61,0,0,0,311,125Z"/><path class="cls-4" d="M190.53,170.72c5.07,2.15,10.68.37,12.52-4s-.79-9.61-5.87-11.76-10.68-.36-12.52,4S185.45,168.58,190.53,170.72Z"/><path class="cls-4" d="M276.89,121.19c2.77,0,5-3.14,5-7s-2.24-7-5-7-5,3.14-5,7S274.12,121.19,276.89,121.19Z"/><path class="cls-4" d="M179.16,78.35c3-.72,5-3.14,4.49-5.4s-3.42-3.5-6.44-2.78-5,3.13-4.5,5.39S176.14,79.07,179.16,78.35Z"/></g></g></g></svg>