<svg xmlns="http://www.w3.org/2000/svg" viewBox="0 0 450 250"><defs><style>.cls-1{fill:#fff;}</style></defs><title>Recurso 1</title><g id="Capa_2" data-name="Capa 2"><g id="Capa_1-2" data-name="Capa 1"><rect class="cls-1" width="450" height="250"/><path d="M165.57,159.11a20.8,20.8,0,0,0,14.11-4.36c7.85-6.07,18.41-6.17,25.33-.65,3.05,2.43,5.48,5.67,8.66,7.87a19.28,19.28,0,0,0,8.83,3.58c9.53.73,15.69,5.65,18.93,14.21s2.36,17-3.62,24.49c-8,10-22.13,10.13-30.21.29-6.17-7.53-14.19-10.08-23.57-8.17a15.41,15.41,0,0,0-5.79,3c-7,5.27-14.52,7.43-22.92,3.78-9.58-4.15-14.8-18-11.11-28.71C147.58,164.61,155.71,158,165.57,159.11Z"/><path d="M267.42,153.21c2.88-8.07,4.52-15.77-1.57-22.4-6.67-7.26-14.36-6-22.33-.83,1.31-5.68,2.32-10.67,3.71-15.56a4.55,4.55,0,0,1,2.94-2.72c3.57-.64,7.39-1.6,10.83-.94,7.13,1.36,13.7.77,19.72-3.23,8-5.35,15.21-3,22,2.22,7.61,5.82,10.07,19.75,5.57,29-4.6,9.42-14,14.52-23.94,11.83C278.65,149,274.92,149.9,267.42,153.21Z"/><path d="M271.79,71.94c-.44,7.29-1.18,13.44-6.12,18.32-3.64,3.6-10.21,4.49-14.36,1.46C237.73,81.79,233,61.25,238.49,47.37,242,38.43,250.35,35.09,258.55,42,268.21,50.17,271.05,61,271.79,71.94Z"/><path d="M205.82,123.2c.53-14.1,3.93-24.44,12.58-32.56,4.5-4.23,13.69-5.16,17.93,1.41,6.49,10.06,5.71,20.5,2.32,31-2.35,7.28-5.8,14-13.33,17.72-6,3-13.65.8-16.17-5.62C207.35,130.59,206.48,125.66,205.82,123.2Z"/><path d="M198.13,108.26c-.1,11.36-1.65,19.26-7.43,26-4,4.65-12.41,5.22-16.53.76-11.52-12.47-12.26-32.85-5.43-45,4.28-7.63,8.59-10.45,15.53-7.48,3.35,1.43,6.42,4.71,8.38,7.91C196.47,96.67,198.32,103.7,198.13,108.26Z"/><path d="M231.86,80.41C216.14,78.51,210,89.34,203,101.19c-.5-9.15-7.68-15-6.9-23.81C197.05,67,204,61.65,214,64.55,222.26,66.93,227.33,72.86,231.86,80.41Z"/><path d="M300.81,63.58a25,25,0,0,1-1.18,22.6,29.31,29.31,0,0,1-3.93,5.3,7.44,7.44,0,0,1-12-1.27c-4-6.75-3.21-18,1.82-24.62.86-1.15,1.69-2.33,2.6-3.44,3.58-4.35,10.36-3.74,12.67,1.34Z"/><path d="M263.75,142c.11,8.85-9.39,20.13-19.37,19.64-5.38-.27-8.82-3-8.19-8.32a26.31,26.31,0,0,1,4.33-11.89c3.16-4.39,7.64-8,13.5-8.51S263.72,136,263.75,142Z"/><path d="M162.38,142.83c-.19,2.65-.72,6.5-4.68,8.09s-7.72.37-11.22-2.51c-6.32-5.2-9.92-11.52-9.51-19.78.33-6.48,5.26-9.63,11.26-7.43C156.26,124.14,162.3,132.9,162.38,142.83Z"/></g></g></svg>