<svg xmlns="http://www.w3.org/2000/svg" viewBox="0 0 205.14 408.8"><defs><style>.cls-1{fill:#9ba4b5;}.cls-2{fill:#abb2c0;}.cls-3{fill:none;stroke:#f1f6f91c;stroke-miterlimit:10;}</style></defs><title>Recurso 17</title><g id="Capa_2" data-name="Capa 2"><g id="Capa_1-2" data-name="Capa 1"><path class="cls-1" d="M153.11,407.87a11.14,11.14,0,0,0,5.73.85,9.48,9.48,0,0,0,4.76-2l38-30.61a9.41,9.41,0,0,1-4.75,2,11.09,11.09,0,0,1-5.74-.86h0L112.83,344.5h0a13.52,13.52,0,0,1-7.79-9.14h0L38.3,62.94"/><path class="cls-1" d="M38.3,62.94a10.46,10.46,0,0,1,3-10.52L99.2,2.3l.26-.21L61.51,32.69l-.26.22L3.33,83a10.44,10.44,0,0,0-3,10.51h0L67.09,366h0a13.52,13.52,0,0,0,7.78,9.13h0l78.22,32.76"/><path class="cls-2" d="M104.18.08c5.62-.72,11.93,3.36,13.55,10l87,355.32c1.63,6.62-2.36,12-8,12.74a11.09,11.09,0,0,1-5.74-.86l-78.23-32.75a13.52,13.52,0,0,1-7.79-9.14L38.3,62.94a10.46,10.46,0,0,1,3-10.52L99.2,2.3A9.44,9.44,0,0,1,104.18.08Z"/><path class="cls-3" d="M88,23.1l10.06-7.76a6.87,6.87,0,0,1,10.86,3.78l12.64,50.7"/></g></g></svg>

