<svg xmlns="http://www.w3.org/2000/svg" viewBox="0 0 187.69 495.42"><defs><style>.cls-1{fill:#24242b;}.cls-2{fill:#2d2d35;}.cls-3{fill:none;stroke:#f1f6f91c;stroke-miterlimit:10;}</style></defs><title>Recurso 18</title><g id="Capa_2" data-name="Capa 2"><g id="Capa_1-2" data-name="Capa 1"><path class="cls-1" d="M187.68,71.77c0-.21,0-.42,0-.63s0-.24,0-.36,0-.37,0-.55,0-.25-.05-.38,0-.24-.06-.36,0-.07,0-.1a11.41,11.41,0,0,0-.33-1.18s0,0,0-.08a1.33,1.33,0,0,1-.09-.21c-.09-.22-.19-.44-.29-.66a1.11,1.11,0,0,1-.07-.16,1.74,1.74,0,0,1-.11-.18c-.09-.17-.18-.32-.28-.48l-.12-.2a3.46,3.46,0,0,0-.22-.31L155,23.67c.12.16.23.33.34.51a5.5,5.5,0,0,1,.28.48l.18.34c.1.22.2.44.29.66s.08.19.11.29a9.36,9.36,0,0,1,.33,1.18c0,.15.06.31.08.46l.06.38c0,.18,0,.36,0,.55s0,.24,0,.36,0,.42,0,.63,0,.2,0,.3c0,.32-.06.64-.11,1L94.1,422.4a10.78,10.78,0,0,1-.34,1.47c-.05.17-.12.32-.18.48-.11.32-.22.64-.36.95a6.1,6.1,0,0,1-.29.57,7.44,7.44,0,0,1-.42.79q-.36.6-.78,1.17l-.06.07c-.26.34-.55.67-.84,1l-.27.27c-.26.27-.53.52-.81.77l-.23.2c-.36.29-.73.57-1.11.83l-.29.18c-.38.24-.76.47-1.16.68L48.08,451.7c-.33.17-.67.31-1,.45l-.76.29c-.34.12-.68.23-1,.32l-.16,0a11.86,11.86,0,0,1-1.3.24l-.3,0a11.66,11.66,0,0,1-1.31.08,10.29,10.29,0,0,1-5.4-1.46L4.26,431.82a8.94,8.94,0,0,1-2.53-2.32l31,42.26a8.94,8.94,0,0,0,2.53,2.32L67.8,494a10.35,10.35,0,0,0,5.41,1.46,11.66,11.66,0,0,0,1.31-.08l.3,0a10.2,10.2,0,0,0,1.3-.24l.16,0c.24-.06.48-.12.72-.2l.31-.12c.25-.09.5-.18.75-.29l.43-.16.59-.29L118,474.08l.57-.31.59-.37.29-.18a.41.41,0,0,1,.11-.07c.31-.21.6-.44.89-.67l.11-.09.23-.2.48-.43.33-.34a3.31,3.31,0,0,0,.26-.27L122,471a10.28,10.28,0,0,0,.67-.81l.06-.07h0a12.51,12.51,0,0,0,.72-1.07l.05-.09a7.44,7.44,0,0,0,.42-.79c.09-.17.19-.33.27-.5a.64.64,0,0,0,0-.07c.14-.31.25-.63.36-.95.06-.16.13-.31.18-.48a12.06,12.06,0,0,0,.34-1.47L187.56,73c.05-.32.09-.64.11-1C187.67,72,187.67,71.87,187.68,71.77Z"/><path class="cls-2" d="M114.47,0a10.35,10.35,0,0,1,5.41,1.46l32.54,19.88a9.06,9.06,0,0,1,4.14,9.42L94.1,422.4A13.25,13.25,0,0,1,87,431.82L48.08,451.7a13,13,0,0,1-5.87,1.46,10.29,10.29,0,0,1-5.4-1.46L4.26,431.82A9.09,9.09,0,0,1,.13,422.4L62.6,30.72a13.24,13.24,0,0,1,7.14-9.42L108.62,1.45A12.87,12.87,0,0,1,114.47,0Z"/><path class="cls-3" d="M120.23,14.47h0a11.19,11.19,0,0,0-11.79-1.08l-31,15.55a11.23,11.23,0,0,0-6,8.22L60.1,107.73"/></g></g></svg>