<svg xmlns="http://www.w3.org/2000/svg" viewBox="0 0 301.47 526.45"><defs><style>.cls-1{fill:#9ba4b5;}.cls-2{fill:#abb2c0;}.cls-3{fill:none;stroke:#f1f6f91c;stroke-miterlimit:10;}</style></defs><title>Recurso 15</title><g id="Capa_2" data-name="Capa 2"><g id="Capa_1-2" data-name="Capa 1"><path class="cls-1" d="M299.93,116a8,8,0,0,1,.68,1.16s0,0,0,.08a8.24,8.24,0,0,1,.49,1.28v0a10.08,10.08,0,0,1,.27,1.35l-6.28-55.38s0-.1,0-.15c0-.21-.07-.42-.11-.63s-.09-.38-.14-.57v-.05c-.06-.2-.12-.4-.2-.6s-.16-.41-.25-.61l0,0s0,0,0-.08-.16-.32-.25-.48-.24-.41-.38-.62l0-.06a.76.76,0,0,1-.08-.11c-.12-.16-.23-.33-.36-.48s-.35-.41-.53-.6L239.05,3.55l-.12-.12a10.4,10.4,0,0,0-.79-.7,1.54,1.54,0,0,0-.19-.17v0a11,11,0,0,0-1.06-.72l-.32-.18c-.28-.16-.57-.31-.86-.45L235.35,1a10.33,10.33,0,0,0-1.21-.45,5.26,5.26,0,0,0-.53-.15l-.24,0q-.44-.1-.87-.18l-.28-.06h-.16l-.5-.06-.42,0h-.21l-.39,0h-1.22l-.83.07h0l-.75.1-.23,0-.26,0-.27,0-.64.16-.09,0h0c-.25.07-.5.14-.75.23l-.19.07L225,.93l-.31.11-.44.2-.22.1-.1,0c-.26.13-.53.26-.79.41l0,0-.23.14c-.2.12-.4.23-.59.36a.18.18,0,0,1-.07,0l-.61.46-.29.21,0,0a4.79,4.79,0,0,0-.47.43l-.36.33c-.16.16-.3.33-.45.5s-.21.23-.3.35-.3.41-.44.61-.15.2-.22.31a9.72,9.72,0,0,0-.55,1L.91,457.68a8.6,8.6,0,0,0-.86,4.75L6.32,517.8a8.67,8.67,0,0,1,.86-4.74L224.77,62c.17-.34.35-.68.55-1,.07-.11.15-.21.22-.31s.28-.42.44-.61l.3-.35c.15-.17.29-.34.45-.5s.24-.22.36-.34.3-.29.47-.42a3.92,3.92,0,0,1,.32-.25l.61-.46.66-.41.23-.15c.3-.16.61-.32.92-.46l.22-.1c.25-.11.5-.22.75-.31l.25-.09c.32-.12.64-.22,1-.31l.09,0c.3-.08.6-.15.91-.21l.26-.06c.33,0,.65-.11,1-.14h0c.33,0,.67-.06,1-.07h1l.39,0,.63.05.5,0,.44.08c.29,0,.59.11.88.18s.51.12.76.2a10.33,10.33,0,0,1,1.21.45l.35.15c.29.14.58.29.86.45l.32.18a11.3,11.3,0,0,1,1.07.74l.19.16a9,9,0,0,1,.91.83L299,114.76a10.1,10.1,0,0,1,.89,1.09Z"/><path class="cls-2" d="M240.41,56a11.26,11.26,0,0,1,4.91,3L299,114.76a8.52,8.52,0,0,1,1.61,9.84L116.13,507a12.42,12.42,0,0,1-9.47,6.44L19.88,526.29a13.84,13.84,0,0,1-6.14-.42C8,524.1,4.53,518.55,7.18,513.06L224.77,62C227.42,56.49,234.62,54.19,240.41,56Z"/><path class="cls-3" d="M89.78,502.16l11.43-2.23a8.66,8.66,0,0,0,6.09-4.6l25.35-50"/></g></g></svg>