<svg xmlns="http://www.w3.org/2000/svg" viewBox="0 0 160.02 223.45"><defs><style>.cls-1{fill:#9ba4b5;}.cls-2{fill:#abb2c0;}.cls-3{fill:none;stroke:#f1f6f91c;stroke-miterlimit:10;}</style></defs><title>Recurso 16</title><g id="Capa_2" data-name="Capa 2"><g id="Capa_1-2" data-name="Capa 1"><path class="cls-1" d="M160,130.09c0-.17,0-.34,0-.5s0-.17,0-.25v-.26c0-.16,0-.33,0-.5a4.43,4.43,0,0,0-.06-.51h0c0-.17,0-.35-.08-.52s-.07-.35-.12-.53,0-.13,0-.19L139.5,47.37c0-.12-.07-.24-.1-.36l-.18-.57-.16-.45,0-.08,0-.08c-.09-.22-.18-.43-.28-.65l-.27-.54-.06-.12,0-.07c-.16-.29-.33-.58-.51-.86a1.77,1.77,0,0,0-.12-.17c-.14-.23-.31-.44-.47-.66l-.32-.46-.14-.15c-.12-.15-.25-.29-.38-.44s-.4-.44-.61-.65l-.44-.42c-.11-.1-.22-.22-.34-.32l-.29-.23c-.2-.16-.4-.32-.61-.47s-.22-.18-.34-.26l-.45-.29-.25-.16-.16-.1c-.23-.14-.47-.27-.71-.4l-.41-.2L54.54,1.27l-.27-.13L53.64.87l-.55-.2h0L52.51.48,52,.34l-.3-.07-.08,0-.14,0L51,.13l-.5-.07h-.26L50,0l-.51,0h-.56a4,4,0,0,0-.49,0l-.31,0h-.24l-.57.1-.09,0L47,.28l-.35.08-.19.06-.31.11L45.92.6l-.18.08a4,4,0,0,0-.47.21L45.08,1,45,1a8.42,8.42,0,0,0-1,.64l-.16.13a6.87,6.87,0,0,0-.94.84L2.21,45.88A8.3,8.3,0,0,1,3.15,45l.17-.13a7.72,7.72,0,0,1,1-.64l.29-.14c.15-.08.3-.14.46-.21l.4-.15.31-.1a5.26,5.26,0,0,1,.53-.15l.21-.05c.24-.06.49-.1.75-.14h.15c.26,0,.52-.06.8-.07a11.39,11.39,0,0,1,1.3,0h.09A10.06,10.06,0,0,1,11,43.5h.09c.46.11.92.23,1.39.39h0a13.64,13.64,0,0,1,1.46.6L91.17,81.45c.44.21.87.45,1.29.7l.24.16c.27.17.53.36.79.55s.42.31.62.48l.63.54.44.42c.21.21.41.43.61.66s.26.28.38.43.31.4.45.61.33.43.48.66.46.73.66,1.1l0,.12a12.09,12.09,0,0,1,.58,1.27l0,.08a13,13,0,0,1,.44,1.38L119,170.07a11.35,11.35,0,0,1,.25,1.24h0a11.52,11.52,0,0,1,.09,1.17s0,.06,0,.1c0,.36,0,.72,0,1.07a.28.28,0,0,1,0,.09,7.18,7.18,0,0,1-.16,1s0,0,0,.06a8.25,8.25,0,0,1-.28,1c0,.05,0,.09,0,.14a8.47,8.47,0,0,1-.38.87c0,.1-.11.2-.17.3a5.51,5.51,0,0,1-.37.61,1.43,1.43,0,0,1-.14.2,7.51,7.51,0,0,1-.61.76l40.63-43.24a8.82,8.82,0,0,0,.61-.76l.15-.2.15-.22a3.78,3.78,0,0,0,.22-.4l.16-.29.06-.1c.1-.22.2-.44.29-.67l0-.1c0-.05,0-.1.05-.14l.12-.36.15-.56a.09.09,0,0,1,0,0,.13.13,0,0,1,0-.06c0-.14.06-.28.08-.43s.05-.34.07-.52c0,0,0-.07,0-.1a.38.38,0,0,1,0-.1A3,3,0,0,0,160,130.09Z"/><path class="cls-2" d="M8.25,43.25a12.06,12.06,0,0,1,5.66,1.26L91.17,81.45a14.37,14.37,0,0,1,7.69,9.16L119,170.07c1,3.87-.13,7.51-2.93,9.57L58.9,221.77A8.69,8.69,0,0,1,54,223.44c-5.54.22-11.78-4.1-13.38-10.41L.36,54.49C-1.24,48.18,2.7,43.47,8.25,43.25Z"/><path class="cls-3" d="M61.47,205.94h0a6.58,6.58,0,0,1-10.3-3.69l-23.4-93.84"/></g></g></svg>