<svg xmlns="http://www.w3.org/2000/svg" viewBox="0 0 450 250"><defs><style>.cls-1{fill:transparent;}.cls-2{fill:#804674;}.cls-3{fill:#a7727d;}</style></defs><title>Recurso 5</title><g id="Capa_2" data-name="Capa 2"><g id="Capa_1-2" data-name="Capa 1"><rect class="cls-1" width="450" height="250"/><path class="cls-2" d="M180.28,159.78c-6.11.75-12.24-1.46-18.23-3.64-4.48-1.63-8.38-.95-12.55.58-18.87,6.92-35.46,2.87-49-11.87-5.89-6.39-5.4-8.61,2.83-11.81,2.22-.87,4.36-2,6.85-2.21,3.73-.3,4.61-2.51,3.22-5.71a49.51,49.51,0,0,1-2.87-10.67c-.94-4.92-.22-5.81,4.63-5.81a60.37,60.37,0,0,1,13.3,2c2.85.64,4.44.06,4.81-3.36a43.68,43.68,0,0,1,3.57-12.47c1.49-3.49,3.83-4.2,6.77-1.71,3.31,2.8,6.62,5.62,9.67,8.67,2.23,2.24,3.67,3,6.06,0A60,60,0,0,1,168,93.42c3.67-3.07,5.91-2.48,7.75,1.87,1.68,4,3.23,8,3.56,12.45.24,3.13,1.62,4.12,4.79,3a43,43,0,0,1,13.73-2.14c3.82-.07,5,1.9,4.29,5.14a65.08,65.08,0,0,1-3.13,11.6c-1.58,3.88-.34,5.15,3.37,5.59,3.88.46,7.32,2.33,10.77,4,3.21,1.57,3.62,4,1.52,6.68C208.06,150.2,195.16,160.85,180.28,159.78Zm.05-5.07c7-.09,15.87-3.52,22-8.82,2.11-1.83,5.81-3.66,5.23-6.3s-4.79-2.51-7.43-3.5c-3.49-1.3-6.36-1.29-9,2.49-3.22,4.62-7.9,7.9-13.14,10.31-2,.93-6.11.66-5.68,3.19.51,3,4.63,1.74,7.1,2.57A3.31,3.31,0,0,0,180.33,154.71Zm-47.39.06a5,5,0,0,0,1.41-.19c1.63-.77,4.51.33,4.82-2.11s-2.35-2.61-4-3.37c-5-2.25-9.94-5-12.94-9.58-3.31-5.08-7.18-4.74-11.79-2.87-1.34.54-2.63,1.19-4,1.61-2.31.73-2.24,1.77-.76,3.38C113,149.61,121.87,154.46,132.94,154.77ZM148.58,124c.82-3.22.92-5.82,2.1-7.75,2.93-4.8,1.1-8.19-2.54-11.29-2-1.74-3.79-5.54-6-4.88-3,.87-2.6,5.1-3.18,8-.49,2.38-2.22,5.17-.13,7.34C141.63,118.3,144.93,120.8,148.58,124Zm15.08-.95c3.42-2.55,6.44-4.84,9.49-7.09a3.35,3.35,0,0,0,1.18-3.44,48.39,48.39,0,0,0-2.49-11.2c-.54-1.44-1.15-2.48-2.65-1.11-3.17,2.92-6.63,5.63-8.7,9.51-1.56,2.91,1.25,5.08,1.7,7.67C162.48,119.07,163.06,120.74,163.66,123Zm14.6,7.61c3.63-.7,6.14-1.62,8.63-1.54,3.69.11,5.65-1.27,6.35-4.86.6-3,3.84-6.84,1.68-8.81-2.37-2.16-6.59.11-9.85,1.14-2.31.73-5.34,1.06-5.51,4.42a25.14,25.14,0,0,1-1.46,7.47C177.61,129.76,177.68,130.66,178.26,130.62Zm-57.17-15.83c-3.63-.45-4.75.25-3.92,2.77s1.4,4.91,2.3,7.29c1,2.59,12,6.73,14.47,5.55a1.59,1.59,0,0,0,.64-.62c.57-1-3-11.77-4.25-12.17C126.86,116.45,123.33,115.46,121.09,114.79Zm5.4,20.09c3.54,6.13,12.92,11.43,18.1,10.68C140.81,138.46,134.57,135.68,126.49,134.88Zm41.13,11c6.46.14,15.54-5.23,18-10.82C177.75,135.74,171.57,138.79,167.62,145.83Zm-17.91-7.06c-1.57-7.54-5.16-12.11-10.45-15.54C140.17,129.52,142.08,135.16,149.71,138.77Zm23.14-15c-5,3.5-9.08,7.56-9.76,14.76C170.27,135.51,172.25,130.08,172.85,123.76Zm-16.55-5.62c-2.66,5.66-2.43,10.67-1.75,15.7.12.87.46,2,1.55,2.19,1.24.16,1.51-1,1.72-1.9C159.1,128.93,158.65,123.9,156.3,118.14Z"/><path class="cls-3" d="M382.28,159.69c-9.2-.48-17.63-2.53-25.26-7.54-2.86-1.87-2.85-3.49-1.16-6.26,1.81-3,3.37-2.46,5.75-.92,7.2,4.64,15,7.16,23.71,6.2a16.36,16.36,0,0,0,5.54-1.48c3.52-1.75,6.16-4.38,6.22-8.47.07-4.31-2.56-7.23-6.38-8.8-6.1-2.51-12.57-3.84-18.89-5.64-5.75-1.64-11.5-3.55-14.09-9.76-4.77-11.48,3.18-24.65,16-26.46,8.77-1.25,17.23-.58,25.17,3.84,3.23,1.79,5.08,3.52,2.7,7.5-1.63,2.73-2.87,2.69-5.24,1.11-7-4.7-14.7-6.19-22.94-3.76-4.54,1.34-7.74,5.14-7.71,9.37,0,4.59,2.57,7.59,6.8,8.89,6.89,2.11,14,3.68,20.8,6,6.29,2.11,11.47,5.62,12.84,13,1.31,7.09-.32,13.21-5.94,17.69C395,158.28,388.56,159.33,382.28,159.69Z"/><path class="cls-3" d="M297,112.1c.4,6.65-.73,14.21.92,21.67s5.06,13.55,12.6,16.32c4,1.48,3.12,4.74,2.44,7.19-.84,3-3.51,1.15-5.26.61-11.12-3.36-18.32-13.66-19.32-26.68-.91-11.84-.53-23.69-.82-35.54-.1-4,1.21-5.31,5.21-5.35s4.37,1.91,4.27,5.06C296.89,100.66,297,106,297,112.1Z"/><path class="cls-3" d="M346.21,113.92c-.18,6.12.6,14.17-1,22.11-2.24,10.87-7.87,18.84-18.95,22.08-1.55.45-3.9,1.8-4.49-.64s-1.79-5.75,1.75-7.12c10.07-3.9,13.11-12,13.33-21.8.24-11.22.56-22.44.61-33.66,0-3.25.86-4.58,4.33-4.52,3.23,0,4.66.84,4.52,4.34C346,100.48,346.21,106.26,346.21,113.92Z"/><path class="cls-3" d="M52.84,116.46c0,7.38-.17,14.77.07,22.14.13,4-2.26,3.76-4.95,3.84s-4.52-.29-4.48-3.8q.21-21.9,0-43.8c0-3.87,1.86-4.41,5.06-4.49,3.37-.09,4.47,1.11,4.37,4.45C52.7,102,52.84,109.24,52.84,116.46Z"/><path class="cls-3" d="M249.94,98.8c-7.85,0-15.71-.11-23.56,0-3.38.07-4.41-1.3-4.49-4.55-.08-3.45,1.6-3.91,4.43-3.9q23.79.13,47.59,0c3.27,0,4.63,1,4.58,4.42s-1.63,4-4.52,4C266,98.73,258,98.79,249.94,98.8Z"/><path class="cls-3" d="M245.83,132.29c0-7.21.13-14.43-.06-21.64-.09-3.33,1.37-4.07,4.31-4,2.68.08,4.57.18,4.54,3.77q-.21,22.35,0,44.71c0,3.62-1.91,3.64-4.56,3.72-3,.1-4.4-.65-4.31-4C246,147.36,245.83,139.82,245.83,132.29Z"/><path class="cls-3" d="M66.93,151.05c6.59,0,13.19.11,19.77-.05,3-.07,3.88,1.08,3.89,4s-1.1,3.9-4,3.87c-12.86-.1-25.73-.14-38.58,0-3.39,0-3.81-1.48-4.05-4.34-.31-3.64,1.78-3.47,4.14-3.46H66.93Z"/></g></g></svg>